<svg width="160" height="24" viewBox="0 0 160 24" fill="none" xmlns="http://www.w3.org/2000/svg">
<g clip-path="url(#clip0_2363_4987)">
<path d="M0 23.487V0.795898H8.46365C12.5233 0.795898 15.2518 2.36126 15.2518 6.71533C15.2518 8.76082 14.5895 10.4183 12.7352 11.3193V11.3851C16.0068 11.806 17.371 14.016 17.371 17.1598C17.371 21.9151 13.2783 23.4805 9.09941 23.4805L0 23.487ZM5.96032 9.70794H6.62258C8.20537 9.70794 9.84114 9.43169 9.84114 7.51117C9.84114 5.43279 7.99344 5.3144 6.38415 5.3144H5.96032V9.70794ZM5.96032 18.9751H6.71528C8.47689 18.9751 11.4438 19.0606 11.4438 16.5613C11.4438 13.8252 8.50339 14.0949 6.56298 14.0949H5.96032V18.9751Z" fill="#E30613"/>
<path d="M25.6293 3.07153C25.6293 3.6793 25.4478 4.27341 25.1077 4.77866C24.7675 5.28391 24.2841 5.67759 23.7186 5.90987C23.1531 6.14215 22.5309 6.2026 21.9308 6.08355C21.3307 5.9645 20.7796 5.67131 20.3474 5.24109C19.9151 4.81087 19.6211 4.26296 19.5025 3.66671C19.3839 3.07046 19.4461 2.45268 19.6812 1.89155C19.9163 1.33042 20.3137 0.85116 20.8232 0.514449C21.3327 0.177737 21.9313 -0.00129439 22.5432 7.04526e-06C23.3618 0.00347936 24.1457 0.328403 24.7239 0.903863C25.3021 1.47932 25.6276 2.25858 25.6293 3.07153ZM25.2982 23.5462H19.7882V8.10963H25.2982V23.5462Z" fill="#E30613"/>
<path d="M44.2983 16.6862H32.6956C32.6956 18.9093 33.8744 20.1129 36.146 20.1129C36.678 20.1575 37.2116 20.0476 37.6819 19.7965C38.1522 19.5455 38.5389 19.1641 38.795 18.6988H44.093C43.8996 19.5287 43.5395 20.3112 43.0342 20.9995C42.529 21.6877 41.889 22.2676 41.1526 22.7043C39.6482 23.5888 37.9272 24.0439 36.1791 24.0197C31.0333 24.0197 27.1856 21.1324 27.1856 15.8049C27.1856 10.6616 30.7287 7.56372 35.795 7.56372C41.1857 7.56372 44.3116 10.8523 44.3116 16.114L44.2983 16.6862ZM39.1725 13.5226C38.9818 12.826 38.5657 12.2109 37.9882 11.7725C37.4107 11.334 36.704 11.0965 35.9771 11.0965C35.2502 11.0965 34.5435 11.334 33.966 11.7725C33.3885 12.2109 32.9723 12.826 32.7817 13.5226H39.1725Z" fill="#E30613"/>
<path d="M57.9012 21.7441H57.835C56.8681 23.2766 54.9608 23.9672 53.1396 23.9672C48.5369 23.9672 45.2985 20.1459 45.2985 15.726C45.2985 11.3062 48.4773 7.51119 53.08 7.51119C53.9813 7.48836 54.8772 7.65598 55.7084 8.00294C56.5396 8.34991 57.287 8.86832 57.9012 9.52381V0.809082H63.4311V23.4871H57.9211L57.9012 21.7441ZM50.9873 15.7524C51.0268 16.6601 51.4177 17.5177 52.0784 18.1462C52.7392 18.7746 53.6188 19.1255 54.5337 19.1255C55.4486 19.1255 56.3281 18.7746 56.9889 18.1462C57.6496 17.5177 58.0405 16.6601 58.08 15.7524C58.0405 14.8446 57.6496 13.987 56.9889 13.3585C56.3281 12.7301 55.4486 12.3792 54.5337 12.3792C53.6188 12.3792 52.7392 12.7301 52.0784 13.3585C51.4177 13.987 51.0268 14.8446 50.9873 15.7524Z" fill="#E30613"/>
<path d="M71.7755 10.5629H71.8351C72.3302 9.68456 73.0641 8.96224 73.953 8.47843C74.8418 7.99461 75.8497 7.7688 76.8616 7.82678H77.9212V13.0885C77.2049 12.7124 76.399 12.5373 75.59 12.5821C72.5304 12.5821 71.7755 14.5947 71.7755 17.2453V23.4738H66.2589V8.0504H71.7755V10.5629Z" fill="#E30613"/>
<path d="M96.9478 15.7785C96.9478 21.0402 92.5902 23.9934 87.5902 23.9934C82.5901 23.9934 78.2258 21.0468 78.2258 15.7785C78.2258 10.5102 82.5901 7.53735 87.5902 7.53735C92.5902 7.53735 96.9478 10.5168 96.9478 15.7785ZM84.0405 15.7785C84.08 16.6863 84.4709 17.5439 85.1316 18.1723C85.7924 18.8008 86.6719 19.1516 87.5868 19.1516C88.5017 19.1516 89.3813 18.8008 90.0421 18.1723C90.7028 17.5439 91.0937 16.6863 91.1332 15.7785C91.0937 14.8707 90.7028 14.0132 90.0421 13.3847C89.3813 12.7562 88.5017 12.4054 87.5868 12.4054C86.6719 12.4054 85.7924 12.7562 85.1316 13.3847C84.4709 14.0132 84.08 14.8707 84.0405 15.7785Z" fill="#E30613"/>
<path d="M104.339 10.0367H104.405C105.676 8.16877 107.22 7.53735 109.372 7.53735C113.551 7.53735 115.22 10.1682 115.22 13.9501V23.4869H109.703V15.9627C109.703 14.4894 109.948 11.898 107.22 11.898C104.981 11.898 104.339 13.5555 104.339 15.4826V23.4869H98.8287V8.05037H104.339V10.0367Z" fill="#E30613"/>
<path d="M123.763 13.6145L129.491 8.05024H137.034L129.246 15.1667L137.518 23.4736H129.789L123.763 17.1859V23.4736H118.246V0.907471H123.763V13.6145Z" fill="#E30613"/>
<path d="M155.485 23.4869H149.968V21.744H149.909C148.935 23.2765 147.028 23.9671 145.213 23.9671C140.578 23.9671 137.366 20.1458 137.366 15.7259C137.366 11.3061 140.544 7.51107 145.154 7.51107C146.054 7.48833 146.949 7.65602 147.779 8.00301C148.609 8.35 149.355 8.86837 149.968 9.52369V8.02409H155.485V23.4869ZM143.061 15.7785C143.101 16.6863 143.491 17.5439 144.152 18.1724C144.813 18.8008 145.692 19.1516 146.607 19.1516C147.522 19.1516 148.402 18.8008 149.063 18.1724C149.723 17.5439 150.114 16.6863 150.154 15.7785C150.114 14.8708 149.723 14.0132 149.063 13.3847C148.402 12.7563 147.522 12.4054 146.607 12.4054C145.692 12.4054 144.813 12.7563 144.152 13.3847C143.491 14.0132 143.101 14.8708 143.061 15.7785Z" fill="#E30613"/>
</g>
<defs>
<clipPath id="clip0_2363_4987">
<rect width="160" height="24" fill="white"/>
</clipPath>
</defs>
</svg>
